<svg width="35px" height="35px" viewBox="0 0 24 24" fill="none" xmlns="http://www.w3.org/2000/svg">
    <!-- Transparent background -->
    <rect x="0" y="0" width="24" height="24" fill="none"/>

    <!-- Black heart outline -->
    <path d="M16.1315 3.71436C14.4172 3.71436 12.9029 4.57721 12 5.8915C11.0972 4.57721 9.58289 3.71436 7.86861 3.71436C5.10289 3.71436 2.85718 5.96007 2.85718 8.72578C2.85718 14.8344 12 20.3258 12 20.3258C12 20.3258 21.1429 14.8344 21.1429 8.72578C21.1429 5.96007 18.8972 3.71436 16.1315 3.71436Z"
          stroke="black" stroke-width="1.5" fill="none"/>

    <!-- Transparent heart interior -->
    <path d="M16.1315 3.71436C14.4172 3.71436 12.9029 4.57721 12 5.8915C11.0972 4.57721 9.58289 3.71436 7.86861 3.71436C5.10289 3.71436 2.85718 5.96007 2.85718 8.72578C2.85718 14.8344 12 20.3258 12 20.3258C12 20.3258 21.1429 14.8344 21.1429 8.72578C21.1429 5.96007 18.8972 3.71436 16.1315 3.71436Z"
          fill="none"/>

</svg>
